<?xml version="1.0" standalone="no"?><!DOCTYPE svg PUBLIC "-//W3C//DTD SVG 1.1//EN" "http://www.w3.org/Graphics/SVG/1.1/DTD/svg11.dtd"><svg t="1604994175681" class="icon" viewBox="0 0 1024 1024" version="1.1" xmlns="http://www.w3.org/2000/svg" p-id="3941" xmlns:xlink="http://www.w3.org/1999/xlink" width="16" height="16"><defs><style type="text/css"></style></defs><path d="M691.2 686.08m-256 0a256 256 0 1 0 512 0 256 256 0 1 0-512 0Z" fill="#5AC8FA" p-id="3942"></path><path d="M71.68 957.44l215.04-46.08 15.36 10.24c66.56 35.84 138.24 51.2 209.92 51.2 256 0 460.8-204.8 460.8-460.8s-204.8-460.8-460.8-460.8-460.8 204.8-460.8 460.8c0 81.92 20.48 158.72 56.32 225.28l10.24 15.36-46.08 204.8z m10.24 51.2c-25.6 5.12-56.32-10.24-61.44-40.96v-20.48l46.08-184.32C25.6 686.08 0 604.16 0 512 0 230.4 230.4 0 512 0s512 230.4 512 512-230.4 512-512 512c-87.04 0-163.84-20.48-235.52-56.32l-194.56 40.96z" fill="" p-id="3943"></path></svg>